<?xml version="1.0" encoding="UTF-8" standalone="no"?>
<svg
   xmlns:dc="http://purl.org/dc/elements/1.1/"
   xmlns:cc="http://creativecommons.org/ns#"
   xmlns:rdf="http://www.w3.org/1999/02/22-rdf-syntax-ns#"
   xmlns:svg="http://www.w3.org/2000/svg"
   xmlns="http://www.w3.org/2000/svg"
   xmlns:xlink="http://www.w3.org/1999/xlink"
   xmlns:sodipodi="http://sodipodi.sourceforge.net/DTD/sodipodi-0.dtd"
   xmlns:inkscape="http://www.inkscape.org/namespaces/inkscape"
   id="Capa_1"
   enable-background="new 0 0 510 510"
   height="512"
   viewBox="0 0 510 510"
   width="512"
   version="1.1"
   sodipodi:docname="big-bang.svg"
   inkscape:version="1.0.1 (3bc2e813f5, 2020-09-07)">
  <metadata
     id="metadata157">
    <rdf:RDF>
      <cc:Work
         rdf:about="">
        <dc:format>image/svg+xml</dc:format>
        <dc:type
           rdf:resource="http://purl.org/dc/dcmitype/StillImage" />
      </cc:Work>
    </rdf:RDF>
  </metadata>
  <defs
     id="defs155">
    <linearGradient
       inkscape:collect="always"
       xlink:href="#lg6"
       id="linearGradient982"
       gradientUnits="userSpaceOnUse"
       x1="-42"
       y1="255"
       x2="518.004"
       y2="255" />
    <linearGradient
       inkscape:collect="always"
       xlink:href="#lg6"
       id="linearGradient984"
       gradientUnits="userSpaceOnUse"
       x1="-42"
       y1="106.416"
       x2="518.004"
       y2="106.416" />
    <linearGradient
       inkscape:collect="always"
       xlink:href="#lg6"
       id="linearGradient986"
       gradientUnits="userSpaceOnUse"
       x1="-42"
       y1="403.585"
       x2="518.004"
       y2="403.585" />
  </defs>
  <sodipodi:namedview
     pagecolor="#ffffff"
     bordercolor="#666666"
     borderopacity="1"
     objecttolerance="10"
     gridtolerance="10"
     guidetolerance="10"
     inkscape:pageopacity="0"
     inkscape:pageshadow="2"
     inkscape:window-width="2560"
     inkscape:window-height="1377"
     id="namedview153"
     showgrid="false"
     inkscape:zoom="1.96875"
     inkscape:cx="256"
     inkscape:cy="256"
     inkscape:window-x="-8"
     inkscape:window-y="-8"
     inkscape:window-maximized="1"
     inkscape:current-layer="Capa_1" />
  <linearGradient
     id="lg1">
    <stop
       offset="0"
       stop-color="#814aa0"
       id="stop2" />
    <stop
       offset="1"
       stop-color="#192a7d"
       id="stop4" />
  </linearGradient>
  <linearGradient
     id="SVGID_1_"
     gradientUnits="userSpaceOnUse"
     x1="-7.711"
     x2="580.47"
     xlink:href="#lg1"
     y1="255"
     y2="255" />
  <linearGradient
     id="SVGID_2_"
     gradientUnits="userSpaceOnUse"
     x1="-156.442"
     x2="394.161"
     xlink:href="#lg1"
     y1="255"
     y2="255" />
  <linearGradient
     id="lg2">
    <stop
       offset="0"
       stop-color="#eaf6ff"
       id="stop9" />
    <stop
       offset=".5213"
       stop-color="#d8ecfe"
       id="stop11" />
    <stop
       offset="1"
       stop-color="#b3dafe"
       id="stop13" />
  </linearGradient>
  <linearGradient
     id="SVGID_3_"
     gradientUnits="userSpaceOnUse"
     x1="-80"
     x2="476.299"
     xlink:href="#lg2"
     y1="58.801"
     y2="58.801" />
  <linearGradient
     id="SVGID_4_"
     gradientUnits="userSpaceOnUse"
     x1="-91.176"
     x2="465.123"
     xlink:href="#lg2"
     y1="287.789"
     y2="287.789" />
  <linearGradient
     id="lg3">
    <stop
       offset="0"
       stop-color="#d8ecfe"
       id="stop18" />
    <stop
       offset=".5667"
       stop-color="#b3dafe"
       id="stop20" />
    <stop
       offset=".9955"
       stop-color="#8ac9fe"
       id="stop22" />
  </linearGradient>
  <linearGradient
     id="SVGID_5_"
     gradientUnits="userSpaceOnUse"
     x1="-62.98"
     x2="493.319"
     xlink:href="#lg3"
     y1="462.408"
     y2="462.408" />
  <linearGradient
     id="SVGID_6_"
     gradientUnits="userSpaceOnUse"
     x1="-80"
     x2="476.299"
     xlink:href="#lg2"
     y1="89.74"
     y2="89.74" />
  <linearGradient
     id="SVGID_7_"
     gradientUnits="userSpaceOnUse"
     x1="-111.312"
     x2="444.987"
     xlink:href="#lg3"
     y1="35.334"
     y2="35.334" />
  <linearGradient
     id="SVGID_8_"
     gradientUnits="userSpaceOnUse"
     x1="-119.481"
     x2="436.819"
     xlink:href="#lg3"
     y1="454.562"
     y2="454.562" />
  <linearGradient
     id="lg4">
    <stop
       offset="0"
       stop-color="#feca9c"
       id="stop29" />
    <stop
       offset=".5213"
       stop-color="#fd8087"
       id="stop31" />
    <stop
       offset="1"
       stop-color="#f46700"
       id="stop33" />
  </linearGradient>
  <linearGradient
     id="SVGID_9_"
     gradientUnits="userSpaceOnUse"
     x1="0"
     x2="510"
     xlink:href="#lg4"
     y1="255"
     y2="255" />
  <linearGradient
     id="SVGID_10_"
     gradientUnits="userSpaceOnUse"
     x1="-172"
     x2="424"
     xlink:href="#lg4"
     y1="273.742"
     y2="273.742" />
  <linearGradient
     id="SVGID_11_"
     gradientUnits="userSpaceOnUse"
     x1="-172"
     x2="424"
     xlink:href="#lg4"
     y1="375.831"
     y2="375.831" />
  <linearGradient
     id="SVGID_12_"
     gradientUnits="userSpaceOnUse"
     x1="-172"
     x2="424"
     xlink:href="#lg4"
     y1="243.28"
     y2="243.28" />
  <linearGradient
     id="lg5">
    <stop
       offset="0"
       stop-color="#fef056"
       id="stop40" />
    <stop
       offset=".5213"
       stop-color="#f4d902"
       id="stop42" />
    <stop
       offset="1"
       stop-color="#fe9738"
       id="stop44" />
  </linearGradient>
  <linearGradient
     id="SVGID_13_"
     gradientUnits="userSpaceOnUse"
     x1="181.333"
     x2="328.667"
     xlink:href="#lg5"
     y1="255"
     y2="255" />
  <linearGradient
     id="SVGID_14_"
     gradientUnits="userSpaceOnUse"
     x1="173.201"
     x2="312.711"
     xlink:href="#lg5"
     y1="255"
     y2="255" />
  <linearGradient
     id="SVGID_15_"
     gradientUnits="userSpaceOnUse"
     x1="173.201"
     x2="312.711"
     xlink:href="#lg5"
     y1="253.387"
     y2="253.387" />
  <linearGradient
     id="SVGID_16_"
     gradientUnits="userSpaceOnUse"
     x1="173.201"
     x2="312.711"
     xlink:href="#lg5"
     y1="222.219"
     y2="222.219" />
  <linearGradient
     id="lg6">
    <stop
       offset="0"
       stop-color="#fd8087"
       id="stop51" />
    <stop
       offset=".5213"
       stop-color="#fb2b3a"
       id="stop53" />
    <stop
       offset="1"
       stop-color="#d90d80"
       id="stop55" />
  </linearGradient>
  <linearGradient
     id="SVGID_17_"
     gradientUnits="userSpaceOnUse"
     x1="-42"
     x2="518.004"
     xlink:href="#lg6"
     y1="44.87"
     y2="44.87" />
  <linearGradient
     id="SVGID_18_"
     gradientUnits="userSpaceOnUse"
     x1="-42"
     x2="518.004"
     xlink:href="#lg6"
     y1="465.13"
     y2="465.13" />
  <linearGradient
     id="SVGID_19_"
     gradientUnits="userSpaceOnUse"
     x1="-42"
     x2="518.004"
     xlink:href="#lg6"
     y1="255"
     y2="255" />
  <linearGradient
     id="SVGID_21_"
     gradientUnits="userSpaceOnUse"
     x1="-42"
     x2="518.004"
     xlink:href="#lg6"
     y1="106.416"
     y2="106.416" />
  <linearGradient
     id="SVGID_22_"
     gradientUnits="userSpaceOnUse"
     x1="-42"
     x2="518.004"
     xlink:href="#lg6"
     y1="403.585"
     y2="403.585" />
  <linearGradient
     id="lg7">
    <stop
       offset="0"
       stop-color="#fbc56d"
       id="stop63" />
    <stop
       offset=".5841"
       stop-color="#fe9738"
       id="stop65" />
    <stop
       offset=".9984"
       stop-color="#fb2b3a"
       id="stop67" />
  </linearGradient>
  <linearGradient
     id="SVGID_25_"
     gradientUnits="userSpaceOnUse"
     x1="-92"
     x2="458.233"
     xlink:href="#lg7"
     y1="83.956"
     y2="83.956" />
  <linearGradient
     id="SVGID_26_"
     gradientUnits="userSpaceOnUse"
     x1="-92"
     x2="458.233"
     xlink:href="#lg7"
     y1="426.044"
     y2="426.044" />
  <linearGradient
     id="SVGID_27_"
     gradientUnits="userSpaceOnUse"
     x1="-92"
     x2="458.233"
     xlink:href="#lg7"
     y1="324.882"
     y2="324.882" />
  <linearGradient
     id="SVGID_28_"
     gradientUnits="userSpaceOnUse"
     x1="-92"
     x2="458.233"
     xlink:href="#lg7"
     y1="185.12"
     y2="185.12" />
  <linearGradient
     id="SVGID_29_"
     gradientUnits="userSpaceOnUse"
     x1="-92"
     x2="458.233"
     xlink:href="#lg7"
     y1="425.364"
     y2="425.364" />
  <linearGradient
     id="SVGID_30_"
     gradientUnits="userSpaceOnUse"
     x1="-92"
     x2="458.233"
     xlink:href="#lg7"
     y1="84.638"
     y2="84.638" />
  <g
     id="g92">
    <path
       d="m 57.465,69.068 c -2.094,-3.547 -5.056,-6.52 -8.596,-8.625 -1.245,-0.741 -1.245,-2.543 0,-3.284 3.54,-2.106 6.502,-5.078 8.596,-8.625 0.741,-1.255 2.553,-1.255 3.294,0 2.094,3.547 5.056,6.52 8.596,8.625 1.245,0.741 1.245,2.543 0,3.284 -3.54,2.106 -6.502,5.078 -8.596,8.625 -0.741,1.255 -2.553,1.255 -3.294,0 z"
       fill="url(#SVGID_3_)"
       id="path80"
       style="fill:url(#SVGID_3_)" />
    <path
       d="m 73.881,298.056 c -2.094,-3.547 -5.056,-6.52 -8.596,-8.625 -1.245,-0.741 -1.245,-2.543 0,-3.284 3.54,-2.106 6.502,-5.078 8.596,-8.625 0.741,-1.255 2.553,-1.255 3.294,0 2.094,3.547 5.056,6.52 8.596,8.625 1.245,0.741 1.245,2.543 0,3.284 -3.54,2.106 -6.502,5.078 -8.596,8.625 -0.741,1.255 -2.554,1.255 -3.294,0 z"
       fill="url(#SVGID_4_)"
       id="path82"
       style="fill:url(#SVGID_4_)" />
    <path
       d="m 211.696,472.675 c -2.094,-3.547 -5.056,-6.52 -8.596,-8.625 -1.245,-0.741 -1.245,-2.543 0,-3.284 3.54,-2.106 6.502,-5.078 8.596,-8.625 0.741,-1.255 2.553,-1.255 3.294,0 2.094,3.547 5.056,6.52 8.596,8.625 1.245,0.741 1.245,2.543 0,3.284 -3.54,2.106 -6.502,5.078 -8.596,8.625 -0.741,1.255 -2.553,1.255 -3.294,0 z"
       fill="url(#SVGID_5_)"
       id="path84"
       style="fill:url(#SVGID_5_)" />
    <path
       d="m 139.924,107.194 c -3.56,-6.03 -8.596,-11.083 -14.613,-14.663 -2.116,-1.259 -2.116,-4.323 0,-5.582 6.017,-3.579 11.053,-8.632 14.613,-14.663 1.259,-2.133 4.34,-2.133 5.599,0 3.56,6.03 8.596,11.083 14.613,14.663 2.116,1.259 2.116,4.323 0,5.582 -6.017,3.579 -11.053,8.633 -14.613,14.663 -1.259,2.133 -4.34,2.133 -5.599,0 z"
       fill="url(#SVGID_6_)"
       id="path86"
       style="fill:url(#SVGID_6_)" />
    <path
       d="m 408.953,52.788 c -3.56,-6.03 -8.596,-11.083 -14.613,-14.663 -2.116,-1.259 -2.116,-4.323 0,-5.582 6.017,-3.579 11.053,-8.632 14.613,-14.663 1.259,-2.133 4.34,-2.133 5.599,0 3.56,6.03 8.596,11.083 14.613,14.663 2.116,1.259 2.116,4.323 0,5.582 -6.017,3.58 -11.053,8.633 -14.613,14.663 -1.258,2.134 -4.339,2.134 -5.599,0 z"
       fill="url(#SVGID_7_)"
       id="path88"
       style="fill:url(#SVGID_7_)" />
    <path
       d="m 381.785,472.016 c -3.56,-6.03 -8.596,-11.083 -14.613,-14.663 -2.116,-1.259 -2.116,-4.323 0,-5.582 6.017,-3.579 11.053,-8.632 14.613,-14.663 1.259,-2.133 4.34,-2.133 5.599,0 3.56,6.03 8.596,11.083 14.613,14.663 2.116,1.259 2.116,4.323 0,5.582 -6.017,3.579 -11.053,8.633 -14.613,14.663 -1.259,2.133 -4.339,2.133 -5.599,0 z"
       fill="url(#SVGID_8_)"
       id="path90"
       style="fill:url(#SVGID_8_)" />
  </g>
  <g
     id="g148">
    <path
       d="M 476.217,103.081 371.57,162.644 c -8.285,4.716 -17.907,6.531 -27.341,5.157 -14.66,-2.135 -27.331,-11.345 -33.885,-24.63 l -6.964,-14.116 c -2.465,-4.997 -8.565,-6.978 -13.496,-4.384 l -13.926,7.326 c -13.12,6.902 -28.797,6.902 -41.917,0 l -13.926,-7.326 c -4.931,-2.594 -11.031,-0.612 -13.496,4.384 l -6.964,14.117 c -6.554,13.285 -19.225,22.496 -33.884,24.63 l -15.591,2.27 c -5.508,0.802 -9.274,5.983 -8.338,11.469 l 2.043,11.975 c 2.818,16.516 -3.77,33.231 -17.099,43.383 l -13.42,10.221 c -5.205,3.964 -5.205,11.797 0,15.761 0,0 0.008,0.007 0.024,0.021 15.713,13.984 13.036,39.272 -5.245,49.677 L 11.42,367.633 C 4.361,371.652 0,379.151 0,387.276 c 0,17.337 18.715,28.219 33.783,19.643 L 138.43,347.356 c 8.285,-4.716 17.907,-6.531 27.341,-5.157 14.659,2.134 27.33,11.345 33.885,24.63 l 6.965,14.117 c 2.465,4.997 8.565,6.978 13.496,4.384 l 13.926,-7.326 c 13.12,-6.902 28.797,-6.902 41.916,0 l 13.926,7.326 c 4.931,2.594 11.031,0.612 13.496,-4.384 l 6.964,-14.116 c 6.554,-13.285 19.225,-22.496 33.885,-24.63 l 15.591,-2.27 c 5.508,-0.802 9.274,-5.983 8.337,-11.469 l -2.043,-11.975 c -2.818,-16.516 3.769,-33.231 17.098,-43.383 l 13.42,-10.222 c 5.205,-3.965 5.205,-11.797 0,-15.761 0,0 -0.008,-0.007 -0.024,-0.021 -15.713,-13.984 -13.036,-39.272 5.245,-49.677 l 96.725,-55.054 c 7.061,-4.019 11.422,-11.519 11.422,-19.643 C 510,105.387 491.285,94.505 476.217,103.081 Z"
       fill="url(#SVGID_9_)"
       id="path94"
       style="fill:url(#SVGID_9_)" />
    <g
       id="g102">
      <circle
         cx="229.989"
         cy="273.742"
         fill="url(#SVGID_10_)"
         r="73.667"
         id="circle96"
         style="fill:url(#SVGID_10_)" />
      <path
         d="m 98.41,347.356 -93.924,53.46 c 6.459,8.579 18.765,12.098 29.297,6.103 L 138.43,347.356 c 0.423,-0.241 0.852,-0.469 1.281,-0.694 -4.326,-2.207 -9.026,-3.744 -13.96,-4.463 -9.434,-1.374 -19.056,0.441 -27.341,5.157 z"
         fill="url(#SVGID_11_)"
         id="path98"
         style="fill:url(#SVGID_11_)" />
      <path
         d="m 476.217,103.081 -10.723,6.103 c 2.781,3.694 4.486,8.321 4.486,13.54 0,8.125 -4.361,15.624 -11.422,19.643 l -96.725,55.054 c -18.281,10.405 -20.959,35.693 -5.245,49.677 0.016,0.014 0.024,0.021 0.024,0.021 5.205,3.965 5.205,11.797 0,15.761 l -13.42,10.222 c -13.329,10.152 -19.917,26.867 -17.098,43.383 l 2.043,11.975 c 0.936,5.486 -2.83,10.667 -8.337,11.469 l -15.591,2.27 c -14.659,2.135 -27.33,11.345 -33.885,24.63 l -3.719,7.539 c 3.209,0.857 6.35,2.057 9.353,3.636 l 13.926,7.326 c 4.931,2.594 11.031,0.612 13.496,-4.384 l 6.964,-14.116 c 6.554,-13.285 19.225,-22.496 33.885,-24.63 l 15.591,-2.27 c 5.507,-0.802 9.274,-5.983 8.337,-11.469 l -2.043,-11.975 c -2.818,-16.516 3.769,-33.231 17.098,-43.383 l 13.42,-10.222 c 5.205,-3.964 5.205,-11.797 0,-15.761 0,0 -0.008,-0.007 -0.024,-0.021 -15.713,-13.984 -13.036,-39.272 5.245,-49.677 l 96.725,-55.054 C 505.639,138.349 510,130.849 510,122.725 c 0,-17.338 -18.715,-28.22 -33.783,-19.644 z"
         fill="url(#SVGID_12_)"
         id="path100"
         style="fill:url(#SVGID_12_)" />
    </g>
    <g
       id="g114">
      <circle
         cx="255"
         cy="255"
         fill="url(#SVGID_13_)"
         r="73.667"
         id="circle104"
         style="fill:url(#SVGID_13_)" />
      <g
         id="g112">
        <path
           d="m 255,181.333 c -4.513,0 -8.924,0.428 -13.213,1.205 34.376,6.229 60.454,36.29 60.454,72.462 0,11.78 -2.78,22.904 -7.698,32.776 -2.492,-11.221 -12.821,-19.492 -24.952,-18.759 -11.788,0.713 -21.489,10.182 -22.46,21.952 -0.51,6.183 1.323,11.927 4.707,16.44 5.373,7.166 1.603,17.511 -7.138,19.464 -0.964,0.215 -1.935,0.412 -2.913,0.589 4.289,0.777 8.7,1.205 13.213,1.205 40.685,0 73.667,-32.982 73.667,-73.667 0,-40.685 -32.982,-73.667 -73.667,-73.667 z"
           fill="url(#SVGID_14_)"
           id="path106"
           style="fill:url(#SVGID_14_)" />
        <circle
           cx="217.75101"
           cy="253.38699"
           fill="url(#SVGID_15_)"
           r="15.584"
           id="circle108"
           style="fill:url(#SVGID_15_)" />
        <circle
           cx="265.215"
           cy="222.218"
           fill="url(#SVGID_16_)"
           r="15.584"
           id="circle110"
           style="fill:url(#SVGID_16_)" />
      </g>
    </g>
    <g
       id="g132">
      <path
         d="m 255,0 c -4.231,0 -7.661,3.429 -7.661,7.661 v 74.418 c 0,4.231 3.429,7.661 7.661,7.661 4.232,0 7.661,-3.429 7.661,-7.661 V 7.661 C 262.661,3.429 259.231,0 255,0 Z"
         fill="url(#SVGID_17_)"
         id="path116"
         style="fill:url(#SVGID_17_)" />
      <path
         d="m 255,420.26 c -4.231,0 -7.661,3.43 -7.661,7.661 v 74.418 c 0,4.231 3.429,7.661 7.661,7.661 4.232,0 7.661,-3.429 7.661,-7.661 v -74.418 c 0,-4.231 -3.43,-7.661 -7.661,-7.661 z"
         fill="url(#SVGID_18_)"
         id="path118"
         style="fill:url(#SVGID_18_)" />
      <path
         d="m 502.339,247.339 h -74.418 c -4.231,0 -7.661,3.429 -7.661,7.661 0,4.231 3.429,7.661 7.661,7.661 h 74.418 c 4.231,0 7.661,-3.429 7.661,-7.661 0,-4.232 -3.429,-7.661 -7.661,-7.661 z"
         fill="url(#SVGID_19_)"
         id="path120"
         style="fill:url(#linearGradient982)" />
      <path
         d="m 89.74,255 c 0,-4.232 -3.429,-7.661 -7.661,-7.661 H 7.661 C 3.429,247.339 0,250.768 0,255 c 0,4.231 3.429,7.661 7.661,7.661 h 74.418 c 4.231,0 7.661,-3.43 7.661,-7.661 z"
         fill="url(#SVGID_19_)"
         id="path122"
         style="fill:url(#SVGID_19_)" />
      <path
         d="m 377.273,140.387 c 1.96,0 3.921,-0.748 5.417,-2.243 l 52.622,-52.622 c 2.992,-2.993 2.992,-7.842 0,-10.835 -2.993,-2.991 -7.843,-2.991 -10.835,0 l -52.622,52.622 c -2.991,2.993 -2.991,7.842 0,10.835 1.497,1.495 3.458,2.243 5.418,2.243 z"
         fill="url(#SVGID_21_)"
         id="path124"
         style="fill:url(#linearGradient984)" />
      <path
         d="m 127.309,371.856 -52.622,52.622 c -2.992,2.993 -2.992,7.842 0,10.835 1.496,1.495 3.457,2.243 5.417,2.243 1.96,0 3.921,-0.748 5.417,-2.243 l 52.622,-52.622 c 2.991,-2.992 2.991,-7.842 0,-10.835 -2.992,-2.991 -7.841,-2.991 -10.834,0 z"
         fill="url(#SVGID_22_)"
         id="path126"
         style="fill:url(#linearGradient986)" />
      <path
         d="m 382.691,371.856 c -2.992,-2.991 -7.842,-2.991 -10.835,0 -2.991,2.992 -2.991,7.842 0,10.835 l 52.622,52.622 c 1.496,1.495 3.457,2.243 5.417,2.243 1.96,0 3.921,-0.748 5.417,-2.243 2.992,-2.993 2.992,-7.842 0,-10.835 z"
         fill="url(#SVGID_22_)"
         id="path128"
         style="fill:url(#SVGID_22_)" />
      <path
         d="m 85.522,74.687 c -2.992,-2.991 -7.842,-2.991 -10.835,0 -2.992,2.993 -2.992,7.842 0,10.835 l 52.622,52.622 c 1.496,1.495 3.457,2.243 5.418,2.243 1.96,0 3.921,-0.748 5.417,-2.243 2.991,-2.993 2.991,-7.842 0,-10.835 z"
         fill="url(#SVGID_21_)"
         id="path130"
         style="fill:url(#SVGID_21_)" />
    </g>
    <g
       id="g146">
      <path
         d="m 317.446,101.945 c 0.047,0.019 0.094,0.039 0.142,0.058 3.875,1.589 8.301,-0.263 9.885,-4.14 L 336.45,75.9 c 1.61,-3.91 -0.27,-8.39 -4.19,-9.99 -3.92,-1.6 -8.39,0.28 -9.99,4.2 l -8.971,21.961 c -1.582,3.873 0.275,8.291 4.147,9.874 z"
         fill="url(#SVGID_25_)"
         id="path134"
         style="fill:url(#SVGID_25_)" />
      <path
         d="m 192.554,408.055 c -0.047,-0.019 -0.094,-0.039 -0.142,-0.058 -3.875,-1.588 -8.301,0.263 -9.885,4.14 L 173.55,434.1 c -1.61,3.91 0.27,8.39 4.19,9.99 0.95,0.38 1.93,0.57 2.89,0.57 3.02,0 5.89,-1.8 7.1,-4.77 l 8.971,-21.961 c 1.582,-3.873 -0.275,-8.291 -4.147,-9.874 z"
         fill="url(#SVGID_26_)"
         id="path136"
         style="fill:url(#SVGID_26_)" />
      <path
         d="m 439.89,322.27 -21.961,-8.971 c -3.873,-1.582 -8.291,0.275 -9.874,4.148 -0.019,0.047 -0.039,0.095 -0.058,0.142 -1.589,3.875 0.263,8.301 4.14,9.885 l 21.963,8.977 c 0.95,0.39 1.93,0.58 2.89,0.58 3.02,0 5.88,-1.8 7.1,-4.77 1.6,-3.921 -0.28,-8.391 -4.2,-9.991 z"
         fill="url(#SVGID_27_)"
         id="path138"
         style="fill:url(#SVGID_27_)" />
      <path
         d="M 97.863,182.527 75.9,173.55 c -3.91,-1.61 -8.39,0.27 -9.99,4.19 -1.6,3.92 0.28,8.39 4.2,9.99 l 21.961,8.971 c 3.873,1.582 8.291,-0.275 9.874,-4.148 0.019,-0.047 0.039,-0.095 0.058,-0.142 1.589,-3.874 -0.263,-8.3 -4.14,-9.884 z"
         fill="url(#SVGID_28_)"
         id="path140"
         style="fill:url(#SVGID_28_)" />
      <path
         d="m 328.983,411.431 c -1.622,-3.861 -6.064,-5.671 -9.924,-4.046 -0.049,0.021 -0.099,0.042 -0.148,0.062 -3.858,1.62 -5.673,6.056 -4.054,9.914 l 9.183,21.879 c 1.24,2.93 4.08,4.7 7.07,4.7 0.99,0 1.99,-0.2 2.96,-0.6 3.9,-1.64 5.74,-6.13 4.1,-10.03 z"
         fill="url(#SVGID_29_)"
         id="path142"
         style="fill:url(#SVGID_29_)" />
      <path
         d="m 190.941,102.615 c 0.049,-0.021 0.099,-0.042 0.148,-0.062 3.858,-1.62 5.673,-6.056 4.054,-9.914 L 185.96,70.76 c -1.64,-3.9 -6.13,-5.73 -10.03,-4.1 -3.9,1.64 -5.74,6.13 -4.1,10.03 l 9.187,21.879 c 1.622,3.861 6.064,5.671 9.924,4.046 z"
         fill="url(#SVGID_30_)"
         id="path144"
         style="fill:url(#SVGID_30_)" />
    </g>
  </g>
</svg>
