<?xml version="1.0" encoding="iso-8859-1"?>
<!-- Generator: Adobe Illustrator 19.0.0, SVG Export Plug-In . SVG Version: 6.00 Build 0)  -->
<svg version="1.1" id="Capa_1" xmlns="http://www.w3.org/2000/svg" xmlns:xlink="http://www.w3.org/1999/xlink" x="0px" y="0px"
	 viewBox="0 0 512 512" style="enable-background:new 0 0 512 512;" xml:space="preserve">
<g>
	<g>
		<g>
			<path d="M256,338.286c-25.247,0-45.714,20.467-45.714,45.714s20.467,45.714,45.714,45.714s45.714-20.467,45.714-45.714
				C301.685,358.765,281.235,338.315,256,338.286z M256,411.429c-15.148,0-27.429-12.28-27.429-27.429s12.28-27.429,27.429-27.429
				c15.148,0,27.429,12.28,27.429,27.429C283.412,399.142,271.141,411.412,256,411.429z"/>
			<circle cx="256" cy="384" r="9.143"/>
			<path d="M256,301.714c-45.445,0-82.286,36.841-82.286,82.286s36.841,82.286,82.286,82.286s82.286-36.841,82.286-82.286
				C338.234,338.576,301.424,301.766,256,301.714z M256,448c-35.346,0-64-28.654-64-64c0-35.346,28.654-64,64-64s64,28.654,64,64
				C319.959,419.329,291.329,447.959,256,448z"/>
			<path d="M402.286,315.143c0.038-16.696-9.435-31.957-24.415-39.33l-0.254-0.134l-72.661-39.054
				c-11.208-5.619-18.261-17.106-18.201-29.643v-10.786c-0.002-2.23,0.813-4.383,2.29-6.054c1.919-2.216,3.723-4.529,5.406-6.929
				c8.025-11.371,14.263-23.903,18.496-37.161c0.917-2.84,3.164-5.054,6.018-5.929c4.812-1.482,10.178-6.018,10.178-10.17v-26.491
				c0-0.563-0.442-2.786-6.117-7.893c-1.925-1.734-3.025-4.203-3.026-6.794V50.473c0-0.4,0.027-0.8,0.08-1.196
				c0.81-11.379-2.837-22.627-10.17-31.366C299.37,6.027,281.232,0,256,0c-25.362,0-43.558,6.089-54.071,18.089
				c-7.234,8.716-10.82,19.89-10.009,31.187c0.054,0.397,0.081,0.796,0.08,1.196v38.304c-0.001,2.591-1.101,5.06-3.027,6.795
				c-5.674,5.107-6.116,7.33-6.116,7.893v26.491c0,2.411,3.156,6.188,7.5,8.991c2,1.293,3.419,3.313,3.955,5.634
				c4.089,16.633,11.635,32.218,22.147,45.741c1.381,1.646,2.139,3.726,2.138,5.875v10.17c-0.005,12.196-6.685,23.41-17.406,29.223
				l-68.246,39.526c-14.28,7.653-23.204,22.53-23.232,38.732V512h292.572L402.286,315.143z M238.442,133.67L238.442,133.67
				c0.464-1.109,1.115-2.13,1.924-3.019c0.872-0.827,1.895-1.479,3.013-1.92c2.226-0.92,4.725-0.92,6.951,0
				c1.119,0.442,2.143,1.094,3.018,1.92c0.807,0.89,1.456,1.91,1.92,3.018c0.976,2.213,0.976,4.734,0,6.946
				c-0.466,1.107-1.115,2.127-1.92,3.018c-0.889,0.807-1.91,1.456-3.018,1.92c-2.214,0.976-4.737,0.976-6.951,0
				c-2.294-0.836-4.101-2.643-4.937-4.937C237.472,138.403,237.472,135.884,238.442,133.67z M145.553,314.33L145.553,314.33
				c-0.466,1.107-1.115,2.127-1.92,3.018c-0.889,0.807-1.91,1.456-3.018,1.92c-2.214,0.976-4.737,0.976-6.951,0
				c-2.294-0.836-4.101-2.643-4.937-4.937c-0.97-2.214-0.97-4.733,0-6.946c0.464-1.109,1.115-2.13,1.924-3.019
				c0.872-0.827,1.895-1.479,3.013-1.92c2.226-0.92,4.725-0.92,6.951,0c1.119,0.442,2.143,1.094,3.018,1.92
				c0.807,0.89,1.456,1.91,1.92,3.018C146.53,309.596,146.53,312.117,145.553,314.33z M256,484.571
				c-55.544,0-100.571-45.027-100.571-100.571c0-55.544,45.027-100.571,100.571-100.571S356.571,328.456,356.571,384
				C356.509,439.518,311.518,484.509,256,484.571z M374.125,478.859c-0.466,1.106-1.115,2.127-1.92,3.018
				c-0.889,0.807-1.91,1.457-3.018,1.92c-2.214,0.976-4.737,0.976-6.951,0c-2.294-0.836-4.101-2.643-4.937-4.937
				c-0.97-2.214-0.97-4.733,0-6.946c0.464-1.109,1.115-2.13,1.924-3.019c0.872-0.827,1.895-1.479,3.013-1.92
				c2.226-0.92,4.725-0.92,6.951,0c1.119,0.442,2.143,1.094,3.018,1.92c0.807,0.89,1.456,1.91,1.92,3.018
				C375.101,474.126,375.101,476.647,374.125,478.859z M383.268,323.473L383.268,323.473c-0.466,1.107-1.115,2.127-1.92,3.018
				c-0.889,0.807-1.91,1.456-3.018,1.92c-2.214,0.976-4.737,0.976-6.951,0c-2.294-0.836-4.101-2.643-4.937-4.937
				c-0.97-2.214-0.97-4.733,0-6.946c0.464-1.109,1.115-2.13,1.924-3.019c0.872-0.827,1.895-1.479,3.013-1.92
				c2.226-0.92,4.725-0.92,6.951,0c1.119,0.442,2.143,1.094,3.018,1.92c0.807,0.89,1.456,1.91,1.92,3.018
				C384.244,318.739,384.244,321.26,383.268,323.473z"/>
		</g>
	</g>
</g>
<g>
</g>
<g>
</g>
<g>
</g>
<g>
</g>
<g>
</g>
<g>
</g>
<g>
</g>
<g>
</g>
<g>
</g>
<g>
</g>
<g>
</g>
<g>
</g>
<g>
</g>
<g>
</g>
<g>
</g>
</svg>
